<svg width="24" height="24" viewBox="0 0 24 24" fill="none" xmlns="http://www.w3.org/2000/svg">
<g clip-path="url(#clip0_517_3406)">
<rect width="24" height="24" fill="black"/>
<path d="M21.8295 14.1991C22.0462 14.0934 22.0854 14.0717 22.1528 14.0308L22.3518 13.9182C22.369 13.9074 22.4204 13.8801 22.4372 13.8621C22.4795 13.8167 22.4204 13.8213 22.1762 13.5643C21.9606 13.3374 21.9113 13.2593 21.7893 13.0861C21.7873 13.0831 21.4683 12.598 21.3802 12.4359C21.3418 12.3654 21.2829 12.2489 21.1909 12.1355C21.0107 11.9133 20.8021 11.8039 20.7284 11.7027C20.7018 11.6662 20.4603 11.3719 20.3796 11.238C20.3706 11.2231 20.3693 11.2242 20.2599 11.0553C20.2298 11.0088 20.0702 10.8165 20.0022 10.6929C19.9069 10.5197 19.7148 10.3961 19.5448 10.0655C19.5303 10.0374 19.4128 9.83279 19.3961 9.80363L19.3951 9.80183C19.3834 9.78144 19.3788 9.78474 19.238 9.55355C19.2167 9.51869 19.0594 9.24104 18.9961 9.14458C18.9614 9.09165 18.9511 9.05978 18.8924 9.07581C18.8561 9.0857 18.7608 9.12964 18.5138 9.2106C17.9967 9.38011 17.9502 9.47848 17.734 9.60114C17.5902 9.68277 17.3506 9.87914 16.52 10.0573C16.1805 10.1302 16.1583 10.1256 16.0121 10.1592C15.7576 10.2177 15.7565 10.2131 15.5208 10.3024C15.516 10.3042 15.47 10.3217 15.4558 10.3028C15.4403 10.2822 15.4646 9.97963 15.5465 9.7652C15.6716 9.43719 15.7328 9.34961 15.9953 8.98646C16.0083 8.96852 16.1033 8.84854 16.1127 8.8366C16.2984 8.60211 16.3151 8.61753 16.5082 8.38923C16.528 8.36579 16.5348 8.37274 16.7676 8.10698C16.8455 8.01815 16.9867 7.83299 17.1737 7.20624C17.2317 7.01167 17.2706 6.71422 17.2793 6.65959V6.65958C17.28 6.65548 17.2861 6.61695 17.2747 6.60816C17.2476 6.58721 17.2289 6.63107 17.2269 6.63559L17.2269 6.63566C17.221 6.64953 17.2238 6.66671 17.1624 6.73534C16.9927 6.9251 16.9237 6.98627 16.741 7.12768C16.7141 7.14848 16.7137 7.14766 16.499 7.29291C16.4633 7.31707 16.333 7.39177 16.3124 7.40358L16.3111 7.40437C15.7871 7.70447 15.2163 7.73246 14.8281 8.00299C14.7266 8.07375 14.653 8.11306 14.4898 8.28584C14.4132 8.36696 14.0801 8.78846 13.9382 9.25083C13.8666 9.48369 13.8031 9.61177 13.7792 10.3126C13.7787 10.3278 13.7499 10.9099 13.7473 10.9394C13.7158 11.299 13.6512 11.8152 13.1747 12.3809C13.0505 12.5284 12.8402 12.795 12.7661 13.145C12.7555 13.1952 12.7516 13.2705 12.7427 13.2801C12.7403 13.2827 12.7187 13.3062 12.6982 13.2796C12.6633 13.2341 12.7499 13.0842 12.5358 12.5182C12.3447 12.0131 12.1766 11.9027 11.8379 11.2892C11.7389 11.1098 11.6638 10.8896 11.6516 10.8537C11.5101 10.4391 11.4624 9.84092 11.4465 9.68594C11.4349 9.57227 11.4264 9.12313 11.3487 8.78487C11.2905 8.53118 11.2317 8.3946 11.1519 8.21533C11.0568 8.00174 10.6458 7.47227 10.5754 7.35988C10.4973 7.23518 10.2643 6.89185 10.1156 6.41065C10.0427 6.17496 10.0432 6.13355 9.92598 5.72974L9.92528 5.72733C9.91168 5.68051 9.80386 5.3092 9.79921 5.30191C9.77768 5.26814 9.73455 5.29858 9.72976 5.30196L9.72972 5.30199C9.60999 5.3869 9.61026 5.38671 9.48349 5.45992C9.461 5.47289 9.39882 5.52215 9.21159 5.61899C8.8963 5.7821 8.66528 5.81906 8.07501 6.15708C7.85923 6.28063 7.85694 6.27578 7.64528 6.40615C7.64495 6.40634 7.26036 6.62113 6.9174 6.75695C6.51806 6.9151 6.495 6.89984 6.49851 6.93279C6.50336 6.97809 6.51976 6.97109 6.63501 7.17195C6.77799 7.42116 6.99315 7.76318 7.09597 7.90427C7.13408 7.95655 7.34574 8.21524 7.58773 8.54666C7.86972 8.93287 7.90863 8.9746 7.94032 9.00854C7.97594 9.04675 7.97281 9.0537 7.9709 9.05796C7.94989 9.10448 7.93503 9.07128 7.8677 9.05054C7.70455 9.00028 7.68371 9.06057 7.29507 8.90641L7.29497 8.90637C7.25827 8.89182 7.05624 8.81177 6.81415 8.81425C6.62123 8.81624 6.63536 8.88891 6.24675 9.08358C6.08029 9.16696 5.75804 9.44534 5.65012 9.51462C5.45451 9.64025 5.43938 9.61877 5.20313 9.82964C5.07404 9.94483 5.02469 9.96183 4.87697 10.0732C4.59455 10.286 4.53927 10.2519 4.30329 10.3603C4.25092 10.3844 3.97848 10.5383 3.96902 10.564C3.96017 10.588 4.00124 10.6149 4.00556 10.6177L4.79235 11.1285C4.88094 11.1681 5.60552 11.6235 5.7942 11.7203C6.36033 12.0107 6.80822 12.034 7.10892 12.1438C7.58806 12.3188 7.77507 12.4097 8.29279 12.8527C8.5998 13.1154 8.93184 13.5075 9.16429 13.7425C9.4006 13.9814 9.39512 13.9864 9.64696 14.2085C10.1462 14.6486 10.51 14.7969 10.6669 14.8973C10.9074 15.0513 10.9152 15.0387 11.3087 15.3129C11.3211 15.3215 11.3194 15.3237 11.4591 15.4269C11.6478 15.5662 11.9717 15.9208 12.1075 16.2785C12.2623 16.6859 12.2634 16.6879 12.2818 16.7211C12.2854 16.7275 12.3268 16.8124 12.3401 16.8549C12.35 16.8863 12.3531 16.8849 12.3603 16.917C12.3758 16.9862 12.4011 16.9486 12.4027 16.9448C12.4061 16.9365 12.4054 16.927 12.408 16.9183C12.4248 16.861 12.416 16.8598 12.4338 16.7746C12.4812 16.5462 12.4938 16.5503 12.5746 16.3322C12.6198 16.21 12.7096 15.969 13.0643 15.6211C13.2678 15.4214 13.6452 15.1472 13.9045 15.0242C14.2699 14.851 14.5911 14.6385 14.7596 14.4465C14.7616 14.4441 14.7814 14.4216 14.7848 14.4166C14.8018 14.3913 14.7992 14.3896 14.8211 14.3684C14.8352 14.3546 14.8393 14.3568 14.8519 14.3717C14.866 14.3885 14.851 14.3928 14.8811 14.6457C14.9404 15.143 14.748 15.367 14.5128 15.6134C14.3696 15.7634 14.2632 15.7954 14.0391 16.0069C13.9982 16.0454 13.9634 16.07 13.8412 16.1882C13.733 16.2929 13.7191 16.288 13.7219 16.3087C13.722 16.3091 13.7449 16.3305 13.7454 16.3306C13.7627 16.3342 13.7604 16.32 13.9595 16.2779C14.4434 16.1756 14.8119 15.9994 14.8823 15.9657C14.8928 15.9607 14.9733 15.9222 15.0138 15.904C15.1047 15.8631 15.3875 15.6999 15.4668 15.6488C15.4936 15.6315 15.9829 15.3308 16.1427 15.2426C16.2902 15.1612 16.6815 14.9133 17.3849 14.7822C17.4051 14.7785 17.5992 14.7527 17.708 14.7468C18.318 14.7139 18.6568 14.8539 19.4347 14.8836C19.8386 14.899 20.3539 14.7743 20.4322 14.7553C20.8616 14.6514 21.0054 14.5738 21.2391 14.4779L21.2391 14.4779C21.2874 14.4581 21.3575 14.4293 21.8295 14.1991Z" fill="white"/>
<path d="M4.52208 12.111C4.30387 12.0187 4.17532 11.9826 4.11904 11.9639C4.0858 11.9743 4.07981 11.9651 4.04154 12.0064C3.9816 12.0712 3.97984 12.0688 3.90925 12.1216C3.74448 12.2449 3.60307 12.3732 3.56982 12.4006C3.27813 12.6403 3.25186 12.6871 3.06205 12.8704C2.75628 13.1656 2.75053 13.168 2.75328 13.1972C2.7535 13.1994 2.7707 13.2169 2.77353 13.2176C2.78276 13.2199 2.91562 13.2402 2.92797 13.2421L3.30736 13.3347C3.32915 13.3293 3.40854 13.3495 3.41714 13.3517C4.55671 13.5577 5.07584 13.8484 5.60171 13.988C6.30286 14.1741 6.85437 14.1599 7.00411 14.1722C7.29775 14.1964 7.37924 14.2 7.51405 14.2188C8.17157 14.3104 8.44719 14.5053 8.61848 14.6224C8.85228 14.7823 8.84993 14.7854 8.87056 14.7988C9.23625 15.0369 9.24205 15.0974 9.29843 15.1266L9.29854 15.1266C9.30311 15.129 9.35344 15.1546 9.34953 15.1095C9.34778 15.0892 9.34306 15.0914 9.32812 15.0784C9.32278 15.0737 9.31823 15.0681 9.31308 15.0632C9.21443 14.9687 9.2112 14.9726 9.1715 14.9371C9.08435 14.859 9.0419 14.8154 9.03114 14.8043C8.93347 14.7038 8.91495 14.6712 8.86498 14.6176L8.86272 14.6151C8.85076 14.6023 8.80459 14.5526 8.78715 14.5331C8.49276 14.2035 8.50697 14.1897 8.02646 13.748C7.48171 13.2472 6.74429 13.0913 6.46309 12.9848C6.1553 12.8682 5.84001 12.7869 5.28062 12.4591C4.77821 12.1647 4.73908 12.2028 4.52208 12.111Z" fill="white"/>
<path d="M0.763462 18.0134C0.765673 18.0114 0.765296 18.0114 0.788352 17.9867L1.40704 17.2921C1.41014 17.2466 1.60902 17.1825 1.71181 17.1407C1.907 17.0614 2.12108 17.0388 2.28339 17.016C2.36602 17.0044 2.62948 16.9987 2.661 16.998L2.66127 16.998C2.86368 16.9936 2.86322 16.9927 3.06501 17.0038C3.36041 17.0202 3.56092 16.9926 3.60423 16.9866L3.60447 16.9866C3.63885 16.9819 3.86289 16.9658 4.22283 16.8722C4.54112 16.7894 4.76154 16.6844 5.13734 16.5414C5.25518 16.4966 5.87576 16.2182 6.38237 16.222C6.68194 16.2242 6.72172 16.2474 6.73175 16.2459C6.74351 16.2442 6.75934 16.2062 6.75772 16.2021C6.75173 16.1871 6.66096 16.1732 6.65231 16.1719C6.65182 16.1718 6.37946 16.145 6.30237 16.1386C5.66539 16.0855 4.93642 16.226 4.6828 16.2466C4.48643 16.2626 3.99241 16.3751 3.33529 16.3743C3.07439 16.3739 2.65202 16.4129 2.63401 16.4173C2.44338 16.4638 2.44853 16.4787 2.41674 16.493L2.41673 16.493C2.41363 16.4944 2.38833 16.5057 2.37508 16.4908C2.35143 16.4643 2.37864 16.4532 2.52676 16.3095C2.63711 16.2025 2.636 16.2022 2.73998 16.0891C2.87994 15.9369 3.20332 15.619 3.3488 15.4517C3.40778 15.3839 3.60328 15.1781 3.64613 15.1259C3.73782 15.0142 3.7424 15.019 3.83465 14.9076C3.91321 14.8128 4.06093 14.6429 4.06308 14.6191C4.06596 14.5876 4.03622 14.5776 4.03211 14.5763L4.03207 14.5762C4.01131 14.5693 4.00934 14.5785 3.76691 14.5095C3.68539 14.4864 3.6841 14.4939 3.55113 14.4552C3.39711 14.4104 3.37729 14.4242 3.36491 14.4328L3.3649 14.4328C3.31687 14.4662 3.33019 14.4781 3.18458 14.6818C3.16584 14.708 3.13838 14.7912 2.95178 14.9951C2.839 15.1183 2.75252 15.2882 2.65663 15.3773C2.52501 15.4996 2.53396 15.5279 2.36089 15.7336C2.23097 15.888 2.22884 15.8854 2.10118 16.0416C2.02249 16.1379 1.93962 16.2302 1.80555 16.3969C1.53017 16.7393 1.50072 16.7141 1.45116 16.7752C1.43784 16.7916 1.42427 16.8338 1.38509 16.8723C1.22599 17.0285 1.23532 17.0367 0.827076 17.4808C0.811462 17.4978 0.813161 17.4988 0.633916 17.6948C0.620406 17.7095 0.621188 17.71 0.471282 17.8852C0.408505 17.9585 0.412873 17.9618 0.305386 18.0712C0.225727 18.1523 0.221548 18.1609 0.196145 18.1835C0.180801 18.1972 0.177269 18.1964 0.177781 18.2176C0.178341 18.2407 0.184749 18.2404 0.207053 18.2396L0.207849 18.2396C0.227291 18.2389 0.226698 18.2345 0.45006 18.2208C0.458986 18.2203 0.591687 18.2069 0.615094 18.1987C0.62375 18.1956 0.635723 18.1983 0.680163 18.1265L0.710069 18.0761C0.730769 18.0412 0.73181 18.0403 0.760524 18.0159L0.763462 18.0134Z" fill="white"/>
<path fill-rule="evenodd" clip-rule="evenodd" d="M22.158 17.606C21.5219 17.6033 21.049 17.7 20.9426 17.7149C20.8443 17.7286 20.3309 17.8004 19.7023 17.7106C19.1652 17.6338 19.0169 17.5766 18.8373 17.5212C18.7562 17.4961 18.4522 17.4164 18.2463 17.3801C17.6066 17.2673 17.2262 17.3854 16.9539 17.3694C16.9145 17.3671 16.8965 17.3652 16.9115 17.3284C16.9173 17.314 16.9976 17.3099 17.0053 17.3095C17.6615 17.2763 18.1576 17.0981 18.7599 17.1081C19.2353 17.1161 19.4447 17.1204 20.0521 17.2727C20.7274 17.442 20.7319 17.4181 21.1336 17.4469C21.2706 17.4567 21.9887 17.4212 22.1861 17.4414C22.4629 17.4697 22.4739 17.4759 22.4889 17.4616C22.5237 17.4284 22.4894 17.4235 22.3688 17.3235C21.9429 16.9702 21.8787 16.8428 21.8177 16.7131C21.6668 16.3922 21.7239 16.371 21.6362 16.1772C21.6155 16.1317 21.5425 16.0146 21.514 15.9794C21.4214 15.8651 21.3223 15.8244 21.3188 15.7917C21.3149 15.755 21.3362 15.7676 21.4556 15.7325C21.8847 15.6064 22.0385 15.5289 22.052 15.5234C22.1748 15.4732 22.2136 15.415 22.2811 15.501C22.3886 15.6379 22.3965 15.6304 22.5026 15.7684C22.565 15.8497 22.6176 15.9477 22.6667 16.012C22.7678 16.1443 22.8828 16.3463 22.972 16.469C23.063 16.5943 23.0584 16.5968 23.1499 16.7221C23.3791 17.0356 23.5518 17.2978 23.6222 17.3935C23.7719 17.5971 23.7785 17.5918 23.9212 17.8008C23.9548 17.8501 24.0138 17.909 24.0051 17.9376C23.9971 17.9636 23.9221 17.9407 23.9114 17.9389C23.4436 17.8599 23.3204 17.7064 22.992 17.6567C22.9118 17.6446 22.295 17.6086 22.158 17.606Z" fill="white"/>
</g>
<defs>
<clipPath id="clip0_517_3406">
<rect width="24" height="24" fill="white"/>
</clipPath>
</defs>
</svg>
