<svg width="55" height="36" viewBox="0 0 55 36" fill="none" xmlns="http://www.w3.org/2000/svg">
<g clip-path="url(#clip0_517_3400)">
<path d="M50.0258 22.9477C50.5225 22.7099 50.6124 22.661 50.7668 22.569L51.2228 22.3158C51.2623 22.2913 51.38 22.23 51.4184 22.1895C51.5155 22.0874 51.3801 22.0978 50.8204 21.5195C50.3262 21.009 50.2134 20.8331 49.9339 20.4434C49.9291 20.4368 49.1981 19.3453 48.9962 18.9806C48.9082 18.8219 48.7733 18.5598 48.5625 18.3046C48.1495 17.8046 47.6714 17.5585 47.5025 17.3308C47.4416 17.2487 46.8882 16.5865 46.7032 16.2854C46.6825 16.2517 46.6796 16.2543 46.4289 15.8743C46.3599 15.7695 45.9941 15.337 45.8383 15.0588C45.6199 14.6692 45.1798 14.391 44.7901 13.6471C44.7568 13.5837 44.4864 13.1214 44.4491 13.0575L44.447 13.0539C44.4201 13.008 44.4097 13.0154 44.0869 12.4952C44.0383 12.4168 43.6777 11.7921 43.5327 11.5751C43.4531 11.456 43.4295 11.3843 43.295 11.4203C43.2119 11.4426 42.9934 11.5415 42.4274 11.7236C41.2425 12.105 41.1357 12.3263 40.6404 12.6023C40.3108 12.786 39.7618 13.2278 37.8583 13.6288C37.0802 13.7927 37.0294 13.7823 36.6943 13.858C36.1111 13.9896 36.1086 13.9792 35.5685 14.1801C35.5574 14.1843 35.4521 14.2235 35.4195 14.1811C35.3841 14.1347 35.4398 13.4539 35.6273 12.9715C35.914 12.2334 36.0543 12.0364 36.6559 11.2193C36.6856 11.1789 36.9033 10.909 36.9249 10.8821C37.3504 10.3545 37.3888 10.3892 37.8313 9.87552C37.8766 9.82277 37.8922 9.83841 38.4258 9.24046C38.6042 9.04059 38.9277 8.62398 39.3563 7.21379C39.4892 6.77602 39.5784 6.10674 39.5984 5.98384C39.5999 5.9747 39.614 5.88792 39.5879 5.86811C39.5258 5.82097 39.4827 5.91966 39.4783 5.92982L39.4782 5.92999C39.4648 5.96121 39.4711 5.99984 39.3305 6.15427C38.9417 6.58124 38.7835 6.71886 38.3648 7.03703C38.3032 7.08383 38.3022 7.08199 37.8101 7.40881C37.7282 7.46317 37.4296 7.63136 37.3826 7.65784L37.3795 7.65958C36.1788 8.33481 34.8707 8.3978 33.9811 9.00649C33.7485 9.1657 33.5796 9.25413 33.2057 9.6429C33.0302 9.82541 32.2669 10.7738 31.9416 11.8141C31.7777 12.3381 31.632 12.6262 31.5774 14.2031C31.5762 14.2373 31.51 15.5471 31.5042 15.6134C31.4321 16.4225 31.2839 17.5839 30.1921 18.8568C29.9074 19.1887 29.4254 19.7886 29.2557 20.5759C29.2314 20.689 29.2224 20.8583 29.2021 20.88C29.1965 20.8859 29.147 20.9386 29.1001 20.8788C29.0201 20.7765 29.2185 20.4393 28.7278 19.1656C28.29 18.0292 27.9047 17.7808 27.1286 16.4004C26.9017 15.9968 26.7296 15.5015 26.7015 15.4207C26.3773 14.4876 26.268 13.1418 26.2316 12.7931C26.205 12.5374 26.1854 11.5268 26.0074 10.7657C25.874 10.1949 25.7392 9.8876 25.5563 9.48424C25.3385 9.00367 24.3965 7.81235 24.2352 7.5595C24.0562 7.27892 23.5222 6.50642 23.1815 5.42372C23.0146 4.89341 23.0156 4.80025 22.747 3.89167L22.7453 3.88585C22.7136 3.77884 22.4671 2.94545 22.4565 2.92905C22.4071 2.85306 22.3083 2.92156 22.2973 2.92916L22.2972 2.92923C22.0228 3.12027 22.0235 3.11984 21.733 3.28457C21.6814 3.31377 21.5389 3.42459 21.1098 3.64249C20.3873 4.00948 19.8579 4.09264 18.5052 4.85318C18.0107 5.13118 18.0054 5.12027 17.5204 5.4136C17.5196 5.41403 16.6383 5.8973 15.8523 6.2029C14.9372 6.55873 14.8843 6.52439 14.8924 6.59853C14.9035 6.70046 14.9411 6.6847 15.2052 7.13663C15.5328 7.69736 16.0259 8.46692 16.2616 8.78436C16.3489 8.90198 16.8339 9.48406 17.3885 10.2298C18.0347 11.0987 18.1239 11.1926 18.1965 11.269C18.2782 11.355 18.271 11.3706 18.2666 11.3802C18.2185 11.4848 18.1844 11.4101 18.0301 11.3635C17.6562 11.2504 17.6085 11.386 16.7178 11.0392L16.7176 11.0391C16.6335 11.0064 16.1705 10.8262 15.6157 10.8318C15.1736 10.8363 15.206 10.9998 14.3154 11.4378C13.934 11.6254 13.1955 12.2518 12.9482 12.4077C12.4999 12.6903 12.4652 12.642 11.9238 13.1164C11.628 13.3756 11.5149 13.4139 11.1764 13.6643C10.5291 14.1432 10.4025 14.0665 9.86167 14.3104C9.74166 14.3646 9.11732 14.711 9.09562 14.7688C9.07535 14.8228 9.16947 14.8832 9.17936 14.8895L10.9824 16.0389C11.1854 16.1279 12.8459 17.1527 13.2783 17.3704C14.5757 18.0239 15.6021 18.0763 16.2912 18.3234C17.3893 18.7171 17.8178 18.9215 19.0043 19.9183C19.7078 20.5094 20.4688 21.3917 21.0015 21.9204C21.543 22.4579 21.5304 22.4693 22.1076 22.9688C23.2517 23.9592 24.0853 24.2927 24.4449 24.5187C24.9961 24.8651 25.0139 24.8368 25.9157 25.4537C25.9441 25.4731 25.9402 25.478 26.2605 25.7102C26.6927 26.0237 27.435 26.8216 27.7464 27.6264C28.101 28.5431 28.1035 28.5476 28.1458 28.6223C28.1539 28.6366 28.2488 28.8277 28.2794 28.9233C28.302 28.9939 28.309 28.9908 28.3255 29.063C28.3612 29.2187 28.4192 29.1341 28.4228 29.1256C28.4307 29.1069 28.429 29.0854 28.4349 29.066C28.4734 28.9371 28.4534 28.9343 28.494 28.7426C28.6028 28.2288 28.6317 28.2379 28.8167 27.7472C28.9203 27.4723 29.1262 26.9301 29.939 26.1473C30.4054 25.698 31.2701 25.0811 31.8645 24.8043C32.7017 24.4144 33.4379 23.9363 33.8239 23.5044L33.8246 23.5037C33.8317 23.4957 33.8743 23.448 33.8817 23.437C33.9208 23.3801 33.9148 23.3764 33.9649 23.3286C33.9972 23.2976 34.0066 23.3025 34.0355 23.3361C34.068 23.3739 34.0335 23.3835 34.1026 23.9525C34.2384 25.0714 33.7975 25.5754 33.2585 26.1299C32.9304 26.4674 32.6865 26.5395 32.1729 27.0152C32.0793 27.102 31.9994 27.1572 31.7194 27.4233C31.4714 27.6588 31.4395 27.6479 31.446 27.6942C31.4462 27.6952 31.4986 27.7433 31.4998 27.7435C31.5394 27.7517 31.5343 27.7197 31.9904 27.625C33.0995 27.3949 33.944 26.9983 34.1052 26.9226C34.1293 26.9113 34.3139 26.8246 34.4066 26.7837C34.615 26.6916 35.2629 26.3245 35.4448 26.2095C35.5062 26.1706 36.6275 25.4941 36.9937 25.2955C37.3316 25.1124 38.2285 24.5546 39.8404 24.2598C39.8866 24.2514 40.3315 24.1933 40.5807 24.1801C41.9787 24.1061 42.7551 24.421 44.5379 24.4878C45.4634 24.5225 46.6444 24.2418 46.8236 24.1992C47.8077 23.9653 48.1372 23.7909 48.6729 23.5751L48.6729 23.5751C48.7836 23.5305 48.9441 23.4658 50.0258 22.9477Z" fill="#D3E0E0"/>
<path d="M10.3629 18.2491C9.86284 18.0414 9.56825 17.9602 9.43927 17.918C9.36308 17.9415 9.34936 17.9207 9.26167 18.0136C9.12429 18.1594 9.12027 18.154 8.95849 18.2728C8.5809 18.5503 8.25684 18.839 8.18064 18.9005C7.51217 19.4398 7.45198 19.5452 7.01699 19.9576C6.31626 20.6219 6.3031 20.6273 6.3094 20.693C6.3099 20.6978 6.34932 20.7374 6.35581 20.739C6.37695 20.7441 6.68143 20.7898 6.70973 20.794L7.57916 21.0024C7.62909 20.9902 7.81103 21.0357 7.83074 21.0406C10.4423 21.504 11.6319 22.1582 12.837 22.4724C14.4438 22.8911 15.7077 22.8591 16.0509 22.8868C16.7238 22.9412 16.9106 22.9493 17.2195 22.9915C18.7263 23.1976 19.3579 23.6361 19.7505 23.8997C20.2863 24.2594 20.2809 24.2665 20.3282 24.2967C21.1662 24.8322 21.1795 24.9685 21.3087 25.0341L21.3089 25.0342C21.3194 25.0394 21.4348 25.0971 21.4258 24.9957C21.4218 24.9501 21.411 24.955 21.3767 24.9256C21.3645 24.915 21.3541 24.9025 21.3423 24.8914C21.1162 24.6787 21.1088 24.6877 21.0178 24.6077C20.8181 24.4321 20.7208 24.3338 20.6962 24.3089C20.4723 24.0828 20.4299 24.0094 20.3154 23.8888C20.301 23.8736 20.1803 23.7464 20.137 23.6988C19.4624 22.9572 19.4949 22.926 18.3938 21.9322C17.1454 20.8054 15.4555 20.4548 14.811 20.215C14.1057 19.9526 13.3831 19.7699 12.1012 19.0323C10.9499 18.3699 10.8602 18.4556 10.3629 18.2491Z" fill="#D3E0E0"/>
<path d="M1.7505 31.5296C1.75556 31.5253 1.7547 31.5251 1.80754 31.4696L3.22536 29.9067C3.23247 29.8044 3.68823 29.6602 3.9238 29.5662C4.37109 29.3876 4.8617 29.3369 5.23366 29.2855C5.42302 29.2594 6.02679 29.2465 6.09902 29.245L6.09964 29.245C6.56349 29.2352 6.56244 29.233 7.02487 29.2581C7.70183 29.2949 8.16133 29.2328 8.26058 29.2194L8.26114 29.2194C8.33993 29.2087 8.85334 29.1726 9.67822 28.9619C10.4076 28.7756 10.9128 28.5394 11.774 28.2177C12.044 28.1168 13.4662 27.4906 14.6272 27.499C15.3137 27.504 15.4048 27.5562 15.4278 27.5529C15.4548 27.5489 15.491 27.4634 15.4873 27.4543C15.4736 27.4205 15.2656 27.3892 15.2458 27.3862C15.2447 27.3861 14.6205 27.3258 14.4438 27.3114C12.9841 27.1918 11.3135 27.5081 10.7323 27.5545C10.2823 27.5904 9.15016 27.8435 7.64427 27.8416C7.04638 27.8408 6.07844 27.9286 6.03716 27.9385C5.60031 28.0431 5.61211 28.0767 5.53925 28.1088L5.53922 28.1088C5.5321 28.1119 5.47414 28.1373 5.44378 28.1039C5.38958 28.0442 5.45193 28.0192 5.79139 27.696C6.04427 27.4551 6.04173 27.4545 6.28002 27.2C6.60075 26.8576 7.34183 26.1424 7.67523 25.7659C7.81038 25.6133 8.25842 25.1502 8.35661 25.0327C8.56673 24.7814 8.57723 24.7922 8.78864 24.5417C8.96866 24.3283 9.30719 23.9461 9.31213 23.8924C9.31873 23.8216 9.25057 23.7992 9.24114 23.7961L9.24106 23.7961C9.19348 23.7805 9.18897 23.8011 8.63341 23.646C8.44659 23.5939 8.44363 23.6108 8.1389 23.5238C7.78593 23.423 7.74051 23.4539 7.71215 23.4732L7.71213 23.4732C7.60206 23.5484 7.63259 23.5751 7.29888 24.0335C7.25593 24.0926 7.19302 24.2798 6.76538 24.7386C6.50695 25.0158 6.30876 25.398 6.08901 25.5984C5.78737 25.8735 5.80789 25.9373 5.41127 26.4001C5.11353 26.7476 5.10865 26.7417 4.8161 27.0932C4.63577 27.3098 4.44587 27.5174 4.13861 27.8926C3.50753 28.663 3.44005 28.6062 3.32646 28.7436C3.29593 28.7806 3.26485 28.8757 3.17506 28.9622C2.81045 29.3137 2.83183 29.332 1.89628 30.3313C1.8605 30.3695 1.86439 30.3717 1.45362 30.8127C1.42266 30.846 1.42445 30.8471 1.08092 31.2412C0.937052 31.4062 0.947063 31.4136 0.700738 31.6598C0.518187 31.8421 0.508608 31.8615 0.450395 31.9124C0.415232 31.9432 0.407136 31.9414 0.408311 31.989C0.409593 32.041 0.424277 32.0405 0.475391 32.0386L0.477215 32.0386C0.521772 32.0369 0.520412 32.0272 1.03228 31.9963C1.05274 31.9951 1.35684 31.9651 1.41048 31.9466C1.43032 31.9397 1.45776 31.9457 1.5596 31.7842L1.62814 31.6707C1.67558 31.5922 1.67796 31.5902 1.74376 31.5352L1.7505 31.5296Z" fill="#D3E0E0"/>
<path fill-rule="evenodd" clip-rule="evenodd" d="M50.7794 30.6125C49.3216 30.6065 48.2379 30.824 47.9941 30.8575C47.7688 30.8884 46.5923 31.05 45.1517 30.8478C43.9209 30.6751 43.581 30.5464 43.1695 30.4216C42.9835 30.3653 42.2869 30.186 41.815 30.1042C40.3491 29.8504 39.4774 30.1161 38.8534 30.0802C38.7632 30.0749 38.7219 30.0708 38.7561 29.988C38.7695 29.9555 38.9536 29.9463 38.971 29.9455C40.4748 29.8708 41.6118 29.4697 42.9922 29.4923C44.0816 29.5102 44.5615 29.5199 45.9533 29.8625C47.5009 30.2435 47.5113 30.1898 48.4318 30.2545C48.7457 30.2766 50.3913 30.1968 50.8439 30.2422C51.4782 30.3058 51.5033 30.3198 51.5376 30.2877C51.6175 30.2128 51.5388 30.202 51.2626 29.977C50.2865 29.182 50.1394 28.8953 49.9997 28.6035C49.6538 27.8815 49.7846 27.8337 49.5835 27.3978C49.5362 27.2953 49.3688 27.0318 49.3036 26.9527C49.0914 26.6955 48.8642 26.604 48.8562 26.5305C48.8473 26.4478 48.896 26.4761 49.1696 26.3972C50.1531 26.1134 50.5057 25.9391 50.5365 25.9266C50.818 25.8136 50.9068 25.6828 51.0615 25.8762C51.3078 26.1842 51.3259 26.1675 51.569 26.478C51.7122 26.6609 51.8327 26.8813 51.9452 27.0259C52.177 27.3237 52.4405 27.7781 52.6448 28.0543C52.8533 28.3361 52.8428 28.3419 53.0526 28.6237C53.5778 29.3291 53.9736 29.9191 54.1349 30.1344C54.4779 30.5925 54.4932 30.5805 54.82 31.0509C54.897 31.1618 55.0322 31.2943 55.0123 31.3586C54.9941 31.4172 54.8221 31.3657 54.7976 31.3616C53.7255 31.1837 53.4433 30.8385 52.6907 30.7266C52.5068 30.6993 51.0934 30.6184 50.7794 30.6125Z" fill="#D3E0E0"/>
</g>
<defs>
<clipPath id="clip0_517_3400">
<rect width="55" height="36" fill="white"/>
</clipPath>
</defs>
</svg>
